<svg version="1.2" xmlns="http://www.w3.org/2000/svg" viewBox="0 0 900 900" width="495" height="540"><style>.a{fill:#fff}</style><path fill-rule="evenodd" class="a" d="m559 248c-53.6 0-97-43.4-97-97 0-53.6 43.4-97 97-97 53.6 0 97 43.4 97 97 0 53.6-43.4 97-97 97zm88.7-71.5c-0.4 0.9-0.9 1.8-1.2 2.7-1.8 4.2-4.4 7.9-7.1 11.9-2.6 4-4.3 9-8.2 11.9-2 1.5-3.6 2.6-5.3 0.7-1.6-1.9-1.8-4.9-1.1-7.2 0.7-2.4 2.3-4.5 3-6.9 0.6-2.3 0.7-5.1 1-7.4 0.3-2.7-0.7-4.7-0.8-7.2-0.1-2.7 1.5-4.7 2.1-7.2 0.6-2.7 1.2-5.1 1.5-7.8 0.4-3.5 0-3.9-1.9-6.5-1.5-2.2-2.5-4.4-2-6.9 0.4-2 2.4-5.1 0.6-6.9-2.2 2-3.9-0.4-5.8-1.2-2.3-1-2.6 0.5-4.9 1.6-1.7 0.8-4.5 1.4-6.3 1.8-2.2 0.4-4.2 0-5.6-1.7-2.6-2.9-5.8-6.3-8-9.4-0.7-0.9-0.9-2.1-1.4-3.1-0.6-1-2-1.7-2.5-2.6-0.9-2 1.6-4.5 1.9-6.9 0.5-4.3-3.3-9.8-1.4-13.7 0.8-1.6 3.4-2.5 3.8-4.6 0.3-1.4-1-1.7-0.1-3.3 0.6-0.8 1.4-0.9 2.3-1.4 3-1.7 10.4-6 13.7-3.3 0.8 0.7 0.6 1.9 1.5 2.6 0.7 0.5 2.3 0.2 3.2 0.7 1.9 1.1 2.9 2.8 5.1 3.5 0.4-3.8 9.2 2 5.6-5.3-1.6-3.2-4.2-4.7-7.9-4.8 0.2 0.3 0.4 1.1 0.8 1.5-2.9 2.3-2.8-0.3-4-2.1-0.7-1.2-3.5-2.9-4.9-3.3 0.1 1 1 1.8 0.8 2.9-1.8 0.2-2.6-2.1-3.9-3.1-1.6-1.3-2.6-1.8-4.4-1.6-4.5 0.6-1.6 6-5.5 7.4-3.7 1.3-7.6-1.7-7.7-5.3 0-2.6 2.6-1.3 3-3.3 0.4-1.6-1.8-2.7-2.9-3.3 2-4.6-7.3-3.9-7.5-8-0.1-2.8 3.2-1.5 4.4-0.3 0.8 0.9 2.5 4.5 4.2 1.8 1.7-3-2.5-3-3.8-3.4-2.3-0.8-3.1-2.4-4.3-4.1q-0.9-1.2-1.8-2.3c-7.1-2-14.6-3.1-22.2-3.3 0.4 1.1-0.5 1.7-2 2.9-1.1 0.9-5.8 6.6-7.5 5.7-1-0.6-0.2-1.6-0.5-2.4-0.3-0.8-1.1-1.2-1.5-1.9-0.5-0.9-1.5-2.5-1.9-3.8q-3.6 0.4-7.2 1.1 0.1 0 0.1 0.1c0.2 0.3 1.1 1.1 1.3 1.4 0.6 1.3 1.4 2.1-0.3 3.4-3.1 2.3-4.8-1.7-7.3-1.2-2.6 0.5-3.6 3.5-6.6 3.9-2.6 0.3-6.5 0.6-6.5 4.1 1 0.3 1.9 0.6 2.9 0.7 0.1 1.4 0.3 3.1-0.2 4.4 3.5 0.6 2.6-1.1 3.5-3.3 1-2.1 3.4-1.8 4.6-3.5 1.2-1.6 0.8-4.1 3.7-3 1.8 0.7 2.2 2.4 4.6 2.1 0.3 0.9 0.3 2 0.1 2.9 2.7 0.1 3.1 1.4 4.4 3.4 0.7 1.2 3.1 4.6-0.3 4.7-1.8 0.1-1.1-1-2.3-1.8-1.4-1-1.1-0.5-2.7-0.2-2.2 0.4-5.2-0.1-3.1 2.4 1.7 1.9 4.3 2.3 0.6 3.8-0.8 0.3-2.2 1-3 1.2-1.8 0.4-1.1-0.4-2.4-0.5-3.9-0.3-0.4 2.9-3 4.6-1.7 1.2-3.6 1-5.3 2.5-1.4 1.4-3 2.9-4.3 4.4-1.7 1.8-1.9 4-3.3 6-1.5 2.1-3 1.9-2.8 4.8 0.1 1.8 0.7 5.1-1.8 5.7-0.3-2.2 0.8-4 0-6-0.8-1.8-2.6-2.6-4.6-2.4-2.6 0.3-8.1 4.1-9.6 6.2-1.5 2.1-4.1 9-2.4 11.5 2.6 3.7 5.9-4.9 9-4.8 1.5 3.3-2.1 5.4-1.7 8.3 2.9 1 5.6 1.3 4.1 5.4l0.6 1.2c-0.2 3.7 0.5 5.3 4.5 4.5 2.6-0.5 5.1-1.4 7.4-2.7 0.9-0.5 2.4-1.9 3.4-2 1.6-0.2 3.1 0.9 4.5 1.1 1.6 0.1 2.6-0.6 4.1-0.6 1.7 0 2.8 0.9 4.5 1 0.6 1.5 3.2 3 4.5 3.9 1 0.6 2.1 1.3 3.3 1.8 1 0.4 2.7 0.4 3.5 0.9 2.1 1.1 2.9 4.6 3.1 6.8 0.1 1.7-2.4 5.3-1.6 6.6 1.5 2.4 3.9-1.3 5.7-1.3 1.2 0 1 0.7 2.2 1 1.1 0.3 1.9-0.2 3.2 0 2.2 0.2 4.2 1.8 6.3 2.4 2.8 0.7 3.9 0.1 6.1 2.3 4.3 4.2 2.8 8-0.8 12.5-2.8 3.6-4.8 8.5-5.6 12.9-0.5 2.7 0.6 4.8-2 6.7-2 1.5-4 1.5-5.5 3.8-1.2 2-1.1 4.7-2.3 6.7-1 1.7-3.2 3.4-4.6 4.9-0.6 0.7-1.6 2-2.4 2.4-1.6 0.8-2.4-0.5-2.3 2.2 0 2.1 1.2 1.5-0.3 3.5-0.8 1-1.9 1.8-2.6 2.8-2.2 2.8-2.2 4.7-1.6 8 0.3 1.6-0.1 3.2 0.1 4.8 0.2 1.7 2 3 1.7 4.7-4.6 0.7-7.7-4.7-8.4-8.3-1.1-4.8-2.5-9.4-3.3-14.4-0.7-4.8-2.7-8.8-2.7-14 0-5 0.3-9.6-3.2-13.2-2.7-2.7-6.5-3.8-8.2-7.4-1-2.2-0.6-4.2-1.2-6.6-0.6-2.6-2.6-3.3-4.5-4.7-3.6-2.8-3.4-8.5-1.9-12.3 1-2.7 6.7-10.4 4.2-13.3-1.5-1.7-4.2 0.5-5.8 0.1-1.1-0.3-3.1-2.2-4.1-2.7-0.3-2.7-1.8-3.1-4.2-3.6-1.3-3-2.6-4.5-5.7-4.8-3.4-0.4-4-2.1-5.8-4.7-2.2-3.2-1.5-4.1-1.1-7.8 0.3-2.7 0.9-7.3-0.1-9.8-3.1 0.3-1.5 7-5.2 5.9-0.4-3.2 1.4-4.8 2.3-7.5 0.8-2.1 0.4-4.7 1-6.8 0.5-1.9 1.5-4.6 2.8-6.3 1.5-2 3.7-2.8 5.1-4.8 0.6-0.9 1-1.9 1.3-2.9q-0.7 0.6-1.3 1.2c-17.4 17.5-27 40.6-27 65.3 0 24.7 9.6 47.8 27 65.3 17.5 17.4 40.6 27 65.3 27 24.7 0 47.8-9.6 65.3-27 11.2-11.3 19.2-24.9 23.4-39.8z"/><path  d="m592.6 281.8l-11.5 318.9q-1.4 38-8.2 69.2-6.7 31.1-20.5 55.6-13.8 24.2-35.1 41.6-21.4 17.1-51.7 26.9l-7.6-17.4q12.6-7.8 23-15.1 10.7-7.6 19.1-16.9 8.5-9.3 14.9-21.4 6.8-12 11.3-28.9 4.8-17.1 7.6-39.9 3.1-22.8 4.2-53.7 1.1-29.2 2.2-60.1 1.1-30.9 2-60.7 1.1-29.8 2-56.7 1.1-27 1.6-48.4 0.6-21.3 0.9-35.4 0.5-14.3 0.5-18.5 0-12.1-1.6-19.7-1.7-7.6-5.1-11.8-3.4-4.5-8.7-6.2-5.3-1.9-12.4-3l-12-1.7v-16.3q6.1 1.1 14.8 2.2 7.3 0.9 17.7 1.4 10.7 0.6 25.1 0.6 14.3 0 31.4-0.9 17.4-1.1 38.2-3.3v16.3q-7.3 0.5-12.9 1.1-5.6 0.6-10.4 1.1-4.5 0.3-9 0.6-4.5 0.3-9.8 0.5z"/><path  d="m138.6 589.4q1-7.2 2.3-16.7 1.7-9.9 3.4-23.1 1.7-13.3 3.4-30.3 1.7-17 3.4-38.8 2.4-31.3 4.5-67.7 2-36.4 3.4-73.4 1.7-37.4 2.3-73.5 1.1-36.4 1.1-67.3 0-35.1-13.6-50.4-13.3-15.3-42.2-15.3h-6.5v-16q18.7-0.3 36.1-2 17.7-2 32.3-4.8 14.6-2.7 25.8-5.4 11.3-3.1 18.1-5.8-3.1 15.3-6.2 31.3-2.7 16-5.1 33.3 39.8-34 70.8-49.3 31.3-15.3 56.8-15.3 50.7 0 77.2 32.7 26.5 32.6 26.5 94.2 0 39.8-14.6 73.8-14.3 34-40.1 58.8-25.9 24.5-61.6 38.5-35.7 13.9-77.9 13.9-16.3 0-25.8-0.7-9.6-0.7-15.3-1.3-2.1 40.8-2.1 74.4 0 22.8 1 38.1 1.4 15 6.2 24.2 4.7 9.2 14.2 12.9 9.9 3.8 27.3 3.8h10.5v16.6q-16.3 0-30.6 0.4-14.3 0-27.9 1-13.6 1-27.6 3-13.9 2.1-29.5 6.2zm69.7-407.5l-8.5 196.6q10.9 4.4 27.2 7.8 16.7 3.4 33.3 3.4 27.6 0 49.7-11.2 22.4-11.2 38.4-31.3 16-20.1 24.5-47.6 8.8-27.9 8.8-61.2 0-27.6-6.8-47.3-6.8-19.7-17.6-32.3-10.9-13-25.2-19.1-14-6.1-28.6-6.1-12.9 0-26.5 4.8-13.6 4.7-26.2 11.9-12.6 7.1-23.5 15.6-10.9 8.5-19 16z"/></svg>