<?xml version="1.0" standalone="no"?>
<!DOCTYPE svg PUBLIC "-//W3C//DTD SVG 20010904//EN"
 "http://www.w3.org/TR/2001/REC-SVG-20010904/DTD/svg10.dtd">
<svg version="1.0" xmlns="http://www.w3.org/2000/svg"
 width="500.000000pt" height="500.000000pt" viewBox="0 0 500.000000 500.000000"
 preserveAspectRatio="xMidYMid meet">

<g transform="translate(0.000000,500.000000) scale(0.100000,-0.100000)"
fill="#000000" stroke="none">
<path d="M3205 4865 c-22 -8 -42 -15 -45 -15 -3 0 2 -5 10 -10 13 -9 13 -12
-2 -21 -10 -5 -18 -19 -18 -31 0 -17 3 -18 15 -8 8 7 21 10 30 7 8 -4 17 -2
20 3 3 5 21 17 40 26 19 9 35 20 35 25 0 6 -8 5 -19 -1 -14 -7 -22 -7 -26 1
-9 14 -6 16 38 23 22 4 37 2 37 -4 0 -6 10 -8 23 -5 17 5 33 -1 55 -20 27 -23
30 -30 21 -47 -10 -18 -9 -20 6 -15 9 4 23 1 31 -7 7 -8 19 -16 26 -19 10 -4
10 -7 0 -18 -11 -12 -16 -11 -28 6 -11 15 -18 17 -32 9 -34 -22 -31 -113 3
-100 19 7 34 -15 31 -44 -2 -14 -13 -45 -24 -69 -28 -58 -28 -60 7 -27 16 16
34 25 39 22 6 -3 18 14 28 39 19 52 15 134 -10 183 -20 38 -70 88 -109 108
-43 23 -134 27 -182 9z"/>
<path d="M3189 4677 c-17 -23 -15 -77 2 -77 4 0 6 -30 3 -67 -3 -47 -2 -62 5
-48 5 11 25 33 45 49 20 16 36 34 36 39 0 6 7 19 16 28 16 17 15 19 -10 28
-15 6 -26 18 -26 29 0 43 -45 55 -71 19z"/>
<path d="M3051 4674 c0 -11 3 -14 6 -6 3 7 2 16 -1 19 -3 4 -6 -2 -5 -13z"/>
<path d="M3052 4610 c0 -14 2 -19 5 -12 2 6 2 18 0 25 -3 6 -5 1 -5 -13z"/>
<path d="M3115 4480 c10 -11 20 -20 23 -20 3 0 -3 9 -13 20 -10 11 -20 20 -23
20 -3 0 3 -9 13 -20z"/>
<path d="M3444 4478 l-19 -23 23 19 c12 11 22 21 22 23 0 8 -8 2 -26 -19z"/>
<path d="M3238 4413 c7 -3 16 -2 19 1 4 3 -2 6 -13 5 -11 0 -14 -3 -6 -6z"/>
<path d="M3318 4413 c7 -3 16 -2 19 1 4 3 -2 6 -13 5 -11 0 -14 -3 -6 -6z"/>
<path d="M3188 3078 l-3 -1213 -21 -56 c-43 -112 -114 -192 -202 -230 -109
-47 -286 -42 -401 11 -35 17 -65 30 -67 30 -2 0 -8 -9 -14 -20 -10 -19 -5 -23
52 -50 89 -42 162 -53 303 -47 94 4 134 10 187 29 135 50 231 135 294 260 66
132 64 74 64 1346 l0 1152 -95 0 -95 0 -2 -1212z"/>
<path d="M960 2951 l0 -1201 90 0 90 0 0 520 0 519 553 3 c618 4 598 2 757 80
214 103 350 335 350 593 0 287 -165 533 -421 628 -129 48 -150 50 -801 54
l-618 5 0 -1201z m1152 1126 c130 -34 226 -86 302 -162 112 -112 165 -256 166
-447 0 -264 -106 -450 -314 -554 -155 -76 -213 -84 -666 -84 -340 0 -388 2
-409 16 -50 36 -51 45 -51 606 0 611 2 623 84 648 18 5 193 8 411 6 374 -3
382 -3 477 -29z"/>
<path d="M630 995 l0 -85 100 0 c93 0 100 1 100 20 0 18 -7 20 -65 20 -51 0
-65 3 -65 15 0 11 12 15 50 15 38 0 50 4 50 15 0 11 -12 15 -50 15 -38 0 -50
4 -50 15 0 12 13 15 60 15 53 0 60 2 60 20 0 19 -7 20 -95 20 l-95 0 0 -85z"/>
<path d="M860 995 l0 -85 35 0 35 0 0 53 0 52 31 -52 c25 -43 36 -53 57 -53
22 0 33 10 59 53 l32 52 1 -52 0 -53 35 0 35 0 0 85 0 85 -43 0 c-41 0 -44 -2
-75 -55 -18 -30 -37 -55 -42 -55 -5 0 -24 25 -42 55 -32 52 -35 54 -75 55
l-43 0 0 -85z"/>
<path d="M1220 995 l0 -85 35 0 c31 0 35 3 35 25 0 23 3 25 49 25 63 0 97 13
106 39 18 57 -25 81 -146 81 l-79 0 0 -85z m149 36 c23 -15 2 -31 -40 -31 -32
0 -39 3 -39 20 0 16 7 20 33 20 17 0 38 -4 46 -9z"/>
<path d="M1480 995 l0 -85 100 0 c93 0 100 1 100 20 0 18 -7 20 -65 20 l-65 0
0 65 0 65 -35 0 -35 0 0 -85z"/>
<path d="M1735 1068 c-41 -24 -56 -68 -39 -113 10 -26 59 -45 118 -45 72 0
110 29 110 84 0 56 -30 79 -106 83 -37 2 -71 -1 -83 -9z m96 -38 c35 -19 18
-80 -22 -80 -21 0 -49 26 -49 45 0 16 27 45 41 45 6 0 19 -5 30 -10z"/>
<path d="M1983 1032 c39 -40 47 -54 47 -85 0 -36 1 -37 35 -37 34 0 35 1 35
39 0 34 7 46 48 85 l47 46 -39 0 c-29 0 -47 -7 -66 -25 l-26 -25 -24 25 c-18
19 -34 25 -64 25 l-40 0 47 -48z"/>
<path d="M2210 995 l0 -85 105 0 c98 0 105 1 105 20 0 17 -8 19 -67 22 -80 4
-91 22 -15 26 37 2 52 7 52 18 0 10 -14 14 -56 14 -40 0 -55 3 -52 13 3 7 28
13 66 15 54 3 62 6 62 22 0 19 -7 20 -100 20 l-100 0 0 -85z"/>
<path d="M2450 995 l0 -85 100 0 c93 0 100 1 100 20 0 18 -7 20 -65 20 -51 0
-65 3 -65 15 0 11 12 15 50 15 38 0 50 4 50 15 0 11 -12 15 -50 15 -38 0 -50
4 -50 15 0 12 13 15 60 15 53 0 60 2 60 20 0 19 -7 20 -95 20 l-95 0 0 -85z"/>
<path d="M2740 995 l0 -85 35 0 c33 0 35 2 35 35 0 35 0 35 45 35 45 0 45 0
45 -35 0 -33 2 -35 35 -35 l35 0 0 85 0 85 -35 0 c-33 0 -35 -2 -35 -35 0 -35
0 -35 -45 -35 -45 0 -45 0 -45 35 0 33 -2 35 -35 35 l-35 0 0 -85z"/>
<path d="M3000 1020 c0 -82 26 -110 100 -110 51 0 88 12 102 34 4 6 8 39 8 74
l0 62 -35 0 -35 0 0 -59 c0 -51 -3 -61 -20 -66 -34 -11 -50 12 -50 71 l0 54
-35 0 -35 0 0 -60z"/>
<path d="M3240 995 l0 -85 94 0 c52 0 106 4 119 9 33 13 41 47 15 65 -12 9
-15 16 -9 21 6 3 11 17 11 31 0 34 -32 44 -141 44 l-89 0 0 -85z m158 28 c2
-9 -10 -13 -42 -13 -43 0 -55 7 -39 24 12 11 76 2 81 -11z m5 -58 c-4 -15 -86
-12 -91 3 -3 10 8 12 44 10 27 -2 48 -7 47 -13z"/>
<path d="M3580 990 l0 -80 30 0 c25 0 30 4 30 25 0 22 4 25 38 25 65 0 111 18
118 46 4 17 1 31 -11 44 -16 17 -31 20 -112 20 l-93 0 0 -80z m155 30 c0 -11
-13 -16 -47 -18 -43 -3 -48 -1 -48 18 0 19 5 21 48 18 34 -2 47 -7 47 -18z"/>
<path d="M3968 1013 c-3 -58 -3 -58 -36 -61 -27 -3 -35 1 -39 17 -7 28 -63 30
-63 3 0 -36 37 -57 100 -57 81 0 100 19 100 97 0 58 0 58 -30 58 -28 0 -29 -1
-32 -57z"/>
</g>
</svg>
